# xmcd CD database file
#
# Track frame offsets:
#	183
#	19918
#	37060
#	55555
#	72630
#	87108
#	104135
#	118260
#	132715
#	146755
#	162340
#	178498
#	194553
#	212185
#	228838
#	245488
#	262025
#	278263
#
# Disc length: 3913 seconds
#
# Revision: 0
# Processed by: cddbd v1.4PL0 Copyright (c) Steve Scherf et al.
# Submitted via: Feurio! 1.63 - http://www.feurio.com
#
DISCID=200f4712
DTITLE=Various Artist - Starke Frauen
DYEAR=1900
DGENRE=
TTITLE0=JULE NEIGEL BAND - Weil ich Dich liebe
TTITLE1=NANETTE SCRIBA - Ich denk an dich
TTITLE2=PATRICIA KAAS - Ganz und gar
TTITLE3=PETRA ZIEGER - Es ist nie zu sp‰t
TTITLE4=STEEFANIE WERGER - Hallo "Freunde"
TTITLE5=VERONIKA FISCHER - Was ist dabei
TTITLE6=PETRA LASER - Mann im Mond
TTITLE7=TAYA - In meinem n‰chsten Leben
TTITLE8=HEIKE NEUMEYER - Ich denk an Dich
TTITLE9=JULIANE WERDING - Stimmen im Wind
TTITLE10=ANNE HAIGIS - Wer fragt nach mir
TTITLE11=WIEBKE SCHR÷DER - Freunde
TTITLE12=CLAUDIA JUNG - Schmetterlinge
TTITLE13=MARIANNE ROSENBERG - Frage niemals
TTITLE14=NICOLE - Beim n‰chsten Mann wird alles anders
TTITLE15=HANNAH - Ich hab' Dich viel zu sehr vermiﬂt
TTITLE16=VALERIE'S GARTEN - Es geht mir gut
TTITLE17=INA DETER - Von Luft und Liebe
EXTD=
EXTT0=
EXTT1=
EXTT2=
EXTT3=
EXTT4=
EXTT5=
EXTT6=
EXTT7=
EXTT8=
EXTT9=
EXTT10=
EXTT11=
EXTT12=
EXTT13=
EXTT14=
EXTT15=
EXTT16=
EXTT17=
PLAYORDER=
